<?xml version="1.0" encoding="utf-8"?>
<!-- Generator: Adobe Illustrator 19.2.1, SVG Export Plug-In . SVG Version: 6.00 Build 0)  -->
<svg version="1.1" id="Layer_1" xmlns="http://www.w3.org/2000/svg" xmlns:xlink="http://www.w3.org/1999/xlink" x="0px" y="0px"
	 viewBox="0 0 500 334.6" style="enable-background:new 0 0 500 334.6;" xml:space="preserve">
<style type="text/css">
	.st0{fill:none;stroke:#4D4D4D;stroke-width:0.5;stroke-miterlimit:10;}
	.st1{fill:#FF632C;}
	.st2{fill:none;stroke:#FF632C;stroke-miterlimit:10;stroke-dasharray:7;}
	.st3{fill:none;stroke:#FF632C;stroke-miterlimit:10;}
	.st4{fill:none;stroke:#FF632C;stroke-miterlimit:10;stroke-dasharray:7.0079,7.0079;}
	.st5{fill:none;stroke:#FF632C;stroke-width:0.5;stroke-miterlimit:10;}
	.st6{fill:none;stroke:#FF632C;stroke-width:0.5;stroke-miterlimit:10;stroke-dasharray:2.9657,2.9657;}
	.st7{fill:none;stroke:#FF632C;stroke-miterlimit:10;stroke-dasharray:7.7795,7.7795;}
	.st8{fill:none;stroke:#4D4D4D;stroke-width:0.25;stroke-linecap:square;stroke-linejoin:round;stroke-miterlimit:10;}
	.st9{fill:#FFE4D1;}
	.st10{fill:#FFFFFF;stroke:#FF632C;stroke-width:0.5;stroke-miterlimit:10;}
	.st11{fill:none;stroke:#FF632C;stroke-width:0.5;stroke-miterlimit:10;stroke-dasharray:3;}
	.st12{fill:none;stroke:#FFE4D1;stroke-width:0.75;stroke-linejoin:bevel;stroke-miterlimit:10;}
	.st13{fill:none;stroke:#FFE4D1;stroke-miterlimit:10;}
	.st14{fill:none;stroke:#FF632C;stroke-width:0.5;stroke-miterlimit:10;stroke-dasharray:2.7957,2.7957;}
	.st15{fill:#FFF4ED;stroke:#4D4D4D;stroke-width:0.1026;stroke-miterlimit:10;}
	.st16{fill:#FFE4D1;stroke:#4D4D4D;stroke-width:0.3;stroke-miterlimit:10;}
</style>
<path class="st0" d="M360.7,328.4l80.3-15c-1.9,0.2-3.9,0.3-5.8,0.4l5.2-1c-17.9,3.5-24.3-7.7-29.9-16.8c-0.3-0.6-0.7-1.1-1-1.7
	c-0.6-2.4-1-4.8-0.9-7.2c0.1-2.2-0.1-5.2,0.5-7.7c0.4-0.3,0.8-0.5,1.3-0.6c0.8-0.2,1.8,0,2.4-0.6s0.6-1.9-0.4-1.9
	c-0.9,0-1.6,0.6-2.3,0.9c0.4-0.6,1-1.2,1.7-1.6c1-0.5,2.5-1.2,2.5-2.5c0-1-0.8-1.8-1.7-1.9c-0.7-0.4-1.7-0.4-2.7,0.4
	c-0.3,0.2-0.6,0.5-0.8,0.8c-0.2-0.3-0.5-0.5-0.9-0.6c-0.3-0.1-0.8-0.1-1,0.2c-0.1,0.1-0.2,0.3-0.2,0.5c-0.1,0.4,0.2,1.6,0.4,2.6
	c-1.1,2-2.1,3.1-4,4.4c0.2-1.5,0.6-3.1,0.8-4.4c0.1-0.4,0.1-0.8,0.2-1.1c1.6-1.9,5-6,1.5-5.2l0,0c-0.1-0.1-0.3-0.2-0.5-0.3
	c-1.7-0.6-2.4,1.5-2.6,2.7c-0.1,0.6-0.3,1.2-0.4,1.8c-0.8,0.9-1.7,1.8-2.4,2.8c-0.2,0.2-0.4,0.6-0.7,1c0-1,0-1.9-0.1-2.5
	c-0.3-2,0-3.2-0.3-4.8c-0.3-1.6-2.3-3.2-3.1-1.1c-0.6,1.7,1.1,2.9,1,4.6c0,0.7-0.3,1.4-0.5,2.1c0,0,0,0,0-0.1
	c-0.5-0.9-1.2-1.7-1.7-2.6s-0.8-1.8-1.3-2.7c-0.4-0.7-1.1-1.1-1.9-1.1s-1.4,0.4-1.4,1c-0.4,0.3-0.7,0.8-0.8,1.3c-0.1,1,0,2-0.2,3
	c-0.1,0.8-0.4,1.6-0.6,2.5c-0.6-0.6-1.2-1.3-1.5-2c-0.7-1.5,0.5-3.3-0.7-4.7c-1.4-1.6-2.8,0.6-2.4,2.2c0.3,1.6,1.1,2.6,1.5,4.6
	c0.2,0.9,0.8,2.3,1.4,3.7c-0.6-0.5-1.1-0.9-1.5-1.1c-0.8-0.5-1.5-0.8-2.3-1.2c-0.8-0.9-1.5-1.9-2.1-2.9c-0.7-1.1-2.1-2.7-3.4-1.5
	c-0.4,0.4-0.6,0.9-0.5,1.4c-3.4,0.7,2.5,3.7,4.1,4.5c0.8,1.4,2,3,2.7,4.6c-2.4-0.6-3.9-1.2-5.7-2.8c-0.2-1.2-0.4-3.1-0.7-3.5
	c-0.1-0.2-0.2-0.3-0.4-0.4c-0.3-0.2-0.7-0.1-1,0.2c-0.5,0.4-0.7,1-0.7,1.6c-0.3-0.1-0.5-0.2-0.8-0.3c-0.3-0.1-0.6-0.1-0.9-0.1
	c-0.3-0.2-0.6-0.3-0.7-0.4c-1.4-0.2-2.6,1.3-2,2.7c0.5,1.2,2.2,1.3,3.3,1.4c1.2,0.2,2.2,0.8,3.1,1.7c-0.9,0.3-2.2-0.4-3.3,0
	c-1,0.4-0.5,1.6,0.3,1.9s1.6-0.2,2.5-0.3c0.6-0.1,1.4,0,2,0.3c1.1,1.9,1.8,4.2,2.6,5.8c1.1,2.5,1.7,5.4,1.9,8.3
	c-0.1,0.5-0.1,1-0.2,1.6c-1.1,6.4-2.3,13.7-7.2,19.1c-1.5-0.4-3-1-4.2-2c-2.8-2.4-4.1-6.9-5.5-10.2c-1.7-4-3.2-8.8-3-13.2
	c0.1-3.6-0.5-9.4,3.1-11.4c1-0.5,2.5-1.2,2.5-2.5c0-1.5-1.6-2.5-2.9-1.7c-0.4,0.2-1.2,1.7-2,3.1c0.3-1.1,0-2.3-1.2-2.7
	c-0.2-0.1-0.5-0.1-0.8,0c-0.7-0.2-1.5-0.1-2.3,0.5c-0.1,0-0.1,0.1-0.2,0.2c0.3-0.5,0.7-0.9,1.1-1.3c0.6-0.9,0.3-2.3-0.8-2.6
	c-1.7-0.6-2.4,1.5-2.6,2.7c-0.6,2.9-1.6,5.6-2.8,8.3c-0.3,0.2-0.6,0.5-0.9,0.7c0.1-1.4,0.3-3.4,0.3-4.8c1.1-1.3,6-6.7,1.9-5.8
	c-1.1,0.2-1.7,1.1-2.2,2c0-0.7,0-1.5-0.1-2.2c-0.3-1.6-2.3-3.2-3.1-1.1c-0.6,1.7,1.1,2.9,1,4.6c0,0.9-0.4,1.7-0.7,2.5
	c-0.3,0.4-0.7,0.8-1,1.2c-0.4,0.5-1.2,1.7-1.7,2.7c-0.5-1.2-1-2.4-1.5-3.7c-0.2-0.4-0.4-0.9-0.4-1.3c-0.1-0.6,0.1-1.3,0.2-1.9
	c0.2-0.7,0.3-1.3,0.5-2c0.3-1.3-0.5-1.6-1.6-1.2c-0.7,0.3-1.3,0.9-1.4,1.7c0,0.3-0.1,0.6-0.1,0.9c-0.2-0.4-0.4-0.9-0.6-1.3
	c-0.4-0.7-1.1-1.1-1.9-1.1c-1.2,0.1-1.8,0.6-1.1,1.7c0.4,0.6,0.8,1.1,1.2,1.7c0.4,0.5,0.8,1.1,0.9,1.7c0.1,0.5,0.1,0.9,0.1,1.4
	c0,1.6-0.1,3.2-0.1,4.8c-0.7-0.6-1.5-1.1-2-1.5c-0.6-0.7-1.2-1.3-1.9-2c-0.6-0.6-1.2-1.3-1.6-2.1c-0.7-1.5,0.5-3.3-0.7-4.7
	c-1.4-1.6-2.8,0.6-2.4,2.2c0.3,1.2,0.8,2.1,1.2,3.4c-0.9-0.8-1.9-1.5-3.1-1.3c-0.9,0.1-1.3,0.4-1.3,0.7c-0.7-1-2-2.3-3.2-1.2
	c-0.9,0.7-0.6,2.1,0.3,2.7c0.5,0.4,1.1,0.6,1.7,1c0.5,0.4,0.9,0.9,1.2,1.5c-0.5-0.3-0.9-0.5-1.5-0.7c-0.7-0.2-1.3-0.2-1.7,0
	c0-0.1-0.1-0.2-0.1-0.2c-0.1-0.2-0.2-0.3-0.4-0.4c-0.3-0.2-0.7-0.1-1,0.2c-1,0.8-0.9,2-0.1,2.9c-1.2-1-2.6-2-3-2.1
	c-1.4-0.2-2.6,1.3-2,2.7c0.5,1.2,2.2,1.3,3.3,1.4c4.1,0.5,5.7,6.2,7.1,9.5c1.8,4.1,2.1,9,2,13.4c-0.1,3.6,0.4,8.3-1.4,11.5
	c-0.8,1.4-1.9,2.4-3.2,3.4c-6.5-3.3-9-6.1-12.4-11.7c-0.4-0.6-1.9-4.7-2.2-5.3c-0.6-2.3-1-4.7-0.9-7c0.1-2.2-0.1-5.3,0.6-7.9
	c0.4-0.3,0.8-0.5,1.2-0.6c0.8-0.2,1.8,0,2.4-0.6s0.6-1.9-0.4-1.9c-0.8,0-1.5,0.5-2.2,0.8c0.4-0.5,0.9-1,1.5-1.3
	c1-0.5,2.5-1.2,2.5-2.5c0-0.9-0.6-1.7-1.4-1.9c-0.7-0.5-1.9-0.7-3,0.2c-0.3,0.3-0.6,0.6-0.9,0.9c-0.2-0.2-0.5-0.4-0.8-0.5
	s-0.8-0.1-1,0.2c-0.1,0.1-0.2,0.3-0.2,0.5c-0.1,0.4,0.2,1.5,0.4,2.5c-1.1,2-2.1,3.1-4,4.4c0.2-1.4,0.6-2.9,0.7-4.3
	c0.1-0.5,0.1-0.9,0.3-1.4c1.6-1.9,4.9-5.9,1.4-5.1h-0.1c-0.1-0.1-0.3-0.2-0.4-0.2c-1.7-0.6-2.4,1.5-2.6,2.7
	c-0.1,0.5-0.2,1.1-0.4,1.6c-0.8,1-1.7,1.8-2.5,2.9c-0.2,0.2-0.4,0.6-0.7,1.1c0-1,0-1.9-0.1-2.4c-0.3-2,0-3.2-0.3-4.8
	s-2.3-3.2-3.1-1.1c-0.6,1.7,1.1,2.9,1,4.6c0,0.7-0.2,1.4-0.5,2c0,0,0-0.1-0.1-0.1c-0.5-0.9-1.2-1.7-1.7-2.6s-0.8-1.8-1.3-2.7
	c-0.4-0.7-1.1-1.1-1.9-1.1c-0.9,0-1.5,0.4-1.4,1.1c-0.4,0.3-0.7,0.8-0.8,1.3c-0.1,1,0,2-0.2,3c-0.1,0.8-0.4,1.6-0.6,2.4
	c-0.6-0.6-1.2-1.3-1.6-2.1c-0.7-1.5,0.5-3.3-0.7-4.7c-1.4-1.6-2.8,0.6-2.4,2.2s1.1,2.6,1.5,4.6c0.2,0.9,0.8,2.4,1.5,3.7
	c-0.6-0.4-1.1-0.8-1.5-1c-0.7-0.4-1.5-0.8-2.2-1.1c-0.8-1-1.6-2-2.3-3.1c-0.7-1.1-2.1-2.7-3.4-1.5c-0.5,0.4-0.6,1-0.5,1.6
	c-3.4,0.7,2.7,3.8,4.2,4.6c0.9,1.4,2,3,2.7,4.6c-2.5-0.6-3.9-1.2-5.8-2.8c-0.2-1.2-0.4-3.2-0.7-3.6c-0.1-0.2-0.2-0.3-0.4-0.4
	c-0.3-0.2-0.7-0.1-1,0.2c-0.6,0.5-0.8,1.1-0.7,1.8c-0.3-0.1-0.5-0.2-0.8-0.3c-0.3-0.1-0.5-0.1-0.8-0.1c-0.4-0.3-0.7-0.5-0.9-0.5
	c-1.4-0.2-2.6,1.3-2,2.7c0.2,0.5,0.7,0.8,1.2,1c0.3,0.2,0.7,0.3,1.2,0.3c0.1,0,0.1,0,0.2,0c0.3,0,0.5,0.1,0.8,0.1
	c1.3,0.2,2.3,0.8,3.2,1.8c-0.9,0.3-2.3-0.4-3.4,0.1c-1,0.4-0.5,1.6,0.3,1.9s1.6-0.2,2.5-0.3c0.7-0.1,1.4,0,2,0.3
	c1,1.9,1.8,4.1,2.5,5.7c1.1,2.6,1.7,5.6,1.9,8.5c-0.1,0.5,0.6,12,0.6,12.5c-1.4,7.6-3.5,5.4-11,10.9c-3.8,1.9-8,3.2-12,4.4l5.4-1
	c-1.5,0.5-3.1,0.9-4.9,1.3l80.3-15c-1.7,0.1-3.4,0.3-5.2,0.3l21.4-4c-0.1,0-0.1,0-0.2,0.1l3.5-0.7l0.8-0.1
	C363.3,327.8,362,328.1,360.7,328.4z M392.2,275.2c0,0.6,0,1.2,0,1.8c-0.2-0.4-0.3-0.8-0.5-1.2c-0.2-0.4-0.4-0.9-0.4-1.3
	c-0.1-0.6,0.1-1.3,0.2-1.9l0,0c0.3,0.4,0.5,0.9,0.7,1.3C392.3,274.2,392.2,274.7,392.2,275.2z M358.1,289c-0.2,0.4-0.5,0.8-0.9,1.1
	c0-0.1,0-0.2,0.1-0.3c0.2-0.5,0.7-1,1.2-1.3C358.3,288.7,358.2,288.9,358.1,289z M360.6,283.7c0.2-0.1,0.4-0.1,0.6-0.2
	c0.2,1,0.4,1.9,0.4,1.9s-0.1,0-0.1,0.1c-1.2,0-2.3,1.2-3.3,1.2C358.8,285.2,359.6,284,360.6,283.7z M334.9,288
	C335,288,335,288,334.9,288c0.8,1.8,1.8,3.7,2.2,4.4c-0.1,0-0.1,0-0.2-0.1c-2.4-2.2-4.7-4.5-6.5-7.1
	C331.8,286.4,334.5,287.7,334.9,288z M327.5,290.5c1,0,2.2,0.8,3.3,1.9c-0.3,0.1-0.6,0.1-0.9,0.1c-1-0.5-2.1-0.9-2.8-1.1
	c0,0-0.1-0.4-0.2-0.9C327.1,290.5,327.3,290.5,327.5,290.5z M295.5,293.5c0,0.6,0,1.2,0,1.9c-0.2-0.4-0.3-0.8-0.5-1.2
	c-0.2-0.4-0.4-0.9-0.4-1.3c-0.1-0.6,0.1-1.3,0.2-1.9v-0.1c0.3,0.4,0.5,0.8,0.6,1.3C295.5,292.5,295.5,293,295.5,293.5z"/>
<path class="st1" d="M349.8,415.2c50.4,0,91.2-40.8,91.2-91.2c0-4.4-0.3-8.6-0.9-12.8l-178.9,34.5
	C270.9,385.6,306.9,415.2,349.8,415.2z"/>
<path class="st1" d="M68.4,292.5c2.3-3.4,4.4-6.4,6.3-9.6c1.2-2.1,2.7-2.5,4.9-1.8c3.9,1.2,6.4,3.8,7.4,7.7c0.5,2.1-1.1,3.3-2.3,4.7
	c-2.9,3.2-5.8,6.3-8.5,9.6c-0.6,0.7-0.4,1.9-0.6,2.9c1,0,2.2,0.3,2.9-0.1c2.8-1.5,5.4-3.3,8.2-4.8c3.6-2,5.8-1.1,7,2.9
	s0.3,7.8-2.6,10.5c-1.5,1.4-4.4,1.9-6.5,1.7c-4.2-0.3-7.1,1.6-9.5,4.5c-5.3,6.5-9,13.7-10.5,22c-0.4,2.4-0.5,4.7,0.7,7
	c1.8,3.3,3.5,6.7,5.3,10.1c0.5,0.9,1.3,1.7,2.1,2.3c2.5,2,3.3,1.9,5.4-0.6c0.5-0.6,1.1-1.1,1.7-1.6c2.3-1.8,3.5-1.6,5.2,0.8
	c0.9,1.2,1.8,2.4,2.7,3.5c3.5,4.7,4.5,9.9,2.5,15.5c-0.8,2.2-2.4,4.1-3.4,6.3c-1.8,3.9-1.9,8.1-0.8,12.2c1,3.6,2.5,7,3.9,10.4
	c0.8,1.9,2.2,2.2,4.2,1.6c3-0.9,6.2-1.2,9.2-2.2c1.4-0.5,2.9-1.6,3.6-2.9c1.7-3.1,3.4-6,6.6-7.8c1.3-0.8,1-1.9,0.6-3.2
	c-0.9-3.2-2-6.3-2.4-9.6c-0.3-2.4,0.2-4.9,0.8-7.3c0.7-2.7,2.5-3.5,5.2-2.8c0.7,0.2,1.4,0.3,2.1,0.3c3.4,0.1,5.8,1.8,7.7,4.5
	c1.3,1.8,2.2,2,3.7,0.3c1.8-2,3.4-4.3,4.7-6.7c1-1.8,1.6-3.9,1.9-6c0.7-4.4,3.1-8,5.6-11.4c3.1-4.2,4.7-8.5,3-13.8
	c-0.7-2.3-0.8-5-0.5-7.5c0.5-4.1-0.5-7.8-2.8-11c-1.4-2.1-4-2.8-6.5-2.9c-3.6,0-7.2,0.3-10.8,0c-2.6-0.2-5.2-1.1-7.8-1.8
	c-2.4-0.6-3.4-2.4-3.8-4.7c-0.4-2.7-0.1-5.3,2.1-7.2c0.6-0.5,1.9-0.5,2.7-0.4c2.2,0.4,4.5,1.1,7.2,1.8c-0.3-1.2-0.5-1.9-0.8-2.6
	c-1.8-4-3.7-7.9-5.5-11.8c-0.9-2.1-0.8-4,1.1-5.5c0.3-0.3,0.6-0.6,0.9-0.9c4.3-3.8,7.5-3.2,10.1,1.8c0.8,1.6,1.5,3.3,2.4,4.9
	c0.2,0.4,1,0.6,1.5,0.9c0.2-0.5,0.7-1.1,0.7-1.6c-0.1-1.8-0.3-3.5-0.5-5.2c-0.4-2.5,0.5-3.5,3.1-3.6c0.2,0,0.4,0,0.6,0
	c5.1,0,7.5,2.5,7.2,7.7c-0.1,2.3-0.4,4.6-0.5,6.9c0,4.4,2.3,7.3,5.8,9.6c1.8,1.2,3.6,2.5,5,4.1c2.6,3,5.1,6.2,7.4,9.5
	c2.5,3.4,6.1,5.4,9.4,7.7c1.3,0.9,2.2,0,3.1-0.8c2.7-2.5,5.4-5,8.2-7.3c3.3-2.8,7.1-4.7,11.4-5.7c3.2-0.7,3.6-1.3,3.3-4.5
	s-0.9-6.4-1.2-9.6c-0.3-3.1-2.2-4.6-4.8-5.4c-2.2-0.7-4.5-1.1-6.8-1.6c-3.8-0.9-6.2-3.4-8-6.7c-0.3-0.5-0.1-1.3,0-2
	c0.1-0.5,0.4-1.1,0.6-1.6c1.9-5.3,4.5-6.4,9.7-4.2c0.5,0.2,1.4,0.4,1.7,0.2c0.4-0.3,0.4-1.1,0.3-1.7c0-0.7-0.2-1.4-0.4-2.1
	c-0.7-2.2,0-3.8,2.1-4.9c0.7-0.4,1.4-1,2-1.5c2.1-1.7,4.1-1.6,5.4,0.8c1.1,2.2,1.6,4.8,2.4,7.1c0.3,0.8,0.9,1.5,1.4,2.3
	c0.7-0.7,1.5-1.3,2.2-2.1c0.2-0.2,0.2-0.5,0.2-0.8c0.4-1.9,0.7-4.2,3-4.3c2.4-0.1,4.8,0.7,6.3,2.8c0.4,0.6,0.5,1.5,0.4,2.2
	c-0.8,5.1-1.5,10.1-5.1,14.3c-0.7,0.8-0.7,2.4-0.5,3.5c0.3,1.6,1.1,3.2,1.7,4.8c1.5,4,0.4,7.9-0.7,11.8c-0.2,0.6-0.1,1.3-0.1,2
	c0.7,0,1.3,0,2-0.1c2.2-0.4,4.3-1.1,6.5-1.3c2.6-0.3,5-0.8,7-2.6c3.5-3.3,8-3.5,12.4-3.8c0.6,0,1.7,0.7,1.9,1.3
	c0.7,1.8,1.3,3.7,1.6,5.7c0.4,2.8-0.6,4.1-3.4,4.9c-1.1,0.3-2.2,0.5-3.3,0.8c-1.2,0.3-1.3,1-0.4,1.8c0.5,0.5,1.1,0.9,1.5,1.5
	c2.1,3.2,1.9,5.2-0.6,7.7c-2.9,2.9-5.2,3.3-8.5,1.3c-0.5-0.3-1.2-0.6-1.6-1c-4.7-5.1-10.9-5-17.1-5.7c-5.8-0.6-10.3,1.9-14.9,4.6
	c-1,0.6-1.9,1.3-2.7,2c-0.6,0.6-1,1.4-1.4,2.1c0.8,0.2,1.7,0.8,2.4,0.7c2.6-0.2,5.2-0.7,7.8-1c2.5-0.3,5.1-0.7,7.6-0.6
	c2.3,0.1,4.5,0.8,6.7,1.4c0.4,0.1,0.7,0.8,0.8,1.3c0.3,1.7,0.6,3.5,0.8,5.2c0.2,1.5-0.1,2.3-1.9,2.2c-1.5-0.1-2.9,0-4.4,0
	c-0.6,1.7,0.4,2.3,1.6,2.8c2.3,0.9,2.8,2.2,2.2,4.6c-0.7,2.9-2.5,5-4.9,6.7c-0.6,0.5-2,0.6-2.6,0.2c-2.5-1.4-4.9-3-7.3-4.7
	c-3.1-2.1-4.4-2-7.5-0.1c-1.4,0.9-2.9,1.6-4.5,2.1c-2.9,0.9-5.9-0.2-7.7-2.6c0-0.1-0.1-0.1-0.1-0.2c-3.6-4.8-8.5-5.3-12.7-0.7
	c-3.3,3.6-6.2,7.7-9.2,11.6c-0.3,0.4-0.5,0.8-0.7,1.3c-0.8,2.2-0.1,3.3,2.3,3.6c0.6,0.1,1.1,0,1.7,0c5.9,0.3,11.9,0.2,17.7,1
	c3.6,0.5,7.1,2.3,10.4,3.9c3,1.5,4.2,4,3.6,6.3c-0.8,3-3.7,5.5-6.7,6.1c-4.7,0.9-8.7-1-12.8-2.7c-3.9-1.6-7.8-2.9-12.1-2.5
	c-8.9,0.9-17.3,3.2-24.8,8c-3,1.9-4.4,4.8-5.2,8.3c-1.6,7.1-4.6,13.6-10.2,18.5c-0.6,0.5-1.4,0.9-2.2,1.2c-0.8,0.3-1.8,0.1-2.5,0.5
	c-1.4,0.8-2.9,1.6-4,2.8c-0.2,0.2,1.1,2.2,2,3.1c2.6,2.4,5.6,4.5,8.1,7.1c2,2.1,3.6,4.6,5.3,7c2.7,3.8,5.1,7.7,7.9,11.4
	c2,2.7,3.4,5.6,3.7,9.1c0.1,0.8,0.4,1.7,0.8,2.3c0.8,1.1,1.8,1.3,2.8,0.3c1.2-1.1,2.4-2.2,3.6-3.3c2.2-2,2.5-4.7,2.9-7.3
	c1-5.4,0.5-10.9-0.7-16.2c-0.4-1.8-2-3.4-2.9-5c-1.2-2-2.6-3.9-3.4-6c-1.4-3.9,0.2-7.5,2.1-10.6c1.7-2.8,4-5.4,6.4-7.8
	c1.9-2,3.9-1.6,5.9,0.2c3.2,2.9,4.7,6.1,3.3,10.6c-0.4,1.5,0.3,3.3,0.5,4.9c0.1,0.6,0.5,1.2,0.9,1.7c4.3,5.2,2.4,10-1,14.6
	c-2.6,3.4-1.5,6.9,2.9,7.4c3.2,0.3,5.9-0.1,8.6-1.9c8.2-5.2,12.1-12.9,13.4-22.2c0.2-1.5,0.6-2.9,0.8-4.4c0.5-2.9-1.3-5.2-2.5-7.5
	c-1.9-3.6-1.5-7.3-1.1-11c0.2-2.1,1.7-3.7,4.1-3.9c1.1-0.1,2.1-0.3,3.1-0.4c4-0.2,6.2,1.6,6.9,5.7c0.1,0.6,0.2,1.2,0.4,1.9
	c0.6,2.8,1.9,3.2,4,1.3c1.1-1,2.1-2.1,3.2-3.1c2-1.9,3.5-2.1,5.4-0.7c2.2,1.6,2.9,4,1.5,6.1c-1.6,2.5-3.4,4.8-5.3,7.1
	c-1.5,1.8-3.3,3.3-5,4.9c-1.9,1.8-1.8,3.8-1.1,6s2.3,3.2,4.5,3.1c1.5,0,3-0.1,4.4-0.6c4.9-1.9,9.8-4,14.7-5.9c1-0.4,2-0.8,3-1.1
	c2.9-1,5.6,0.4,5.8,3.8c0,0.5,0.2,1,0.4,1.4c1.3,2.4,1,3.7-1.5,4.9c-2.1,1.1-4.3,1.8-6.4,2.7c-0.4,0.2-0.9,0.2-1.2,0.5
	c-0.5,0.4-0.8,1-1.2,1.5c0.5,0.4,1.1,1,1.6,1.1c4.7,0.4,8.8,2.3,12.8,4.5c0.7,0.4,1.3,0.8,2,1.3c1.4,1.1,2.1,2.5,1.2,4.2
	c-0.9,1.9-1.8,3.8-3,5.6c-1.4,2.2-3.3,2.8-5.7,1.7c-2.4-1.1-4.7-2.5-7-3.8c-5.9-3.4-12.3-5.3-19-5.8c-2.3-0.2-4.8,0.8-7.2,1.5
	c-2.5,0.8-5,1.8-7.4,2.9c-2.6,1.2-5.2,2.6-7.7,4c-4.1,2.3-8.1,4.6-12.1,6.9c-2.4,1.4-4,3.2-4.1,6.2c-0.1,3.8-2.8,6.4-4.9,9.1
	c-1.2,1.5-1.8,3-1.5,5c0.1,1.4-0.2,3.2-1.1,4.3c-4,5.3-8.4,9.9-15.2,11.8c-2.6,0.7-5,2.3-7.3,3.7c-5.6,3.5-10.7,7.8-17.4,9.4
	c-0.6,0.1-1.1,0.9-1.7,1.4c0.5,0.5,0.9,1.3,1.5,1.5c2.6,0.7,5.1,1.4,7.8,1.7c7.4,0.7,14.9,1.1,22.3,1.7c1.4,0.1,2.9,0.3,4.2-0.1
	c5.3-1.5,10.5-3.2,15.7-4.8c3.7-1.1,5.7-3.8,7.3-7.1c1.3-2.5,2.9-4.8,4.5-7.1c1.6-2.3,4-3,6.7-2.2c2.3,0.6,3.3,2,2.5,4.2
	c-0.7,1.8-2.1,3.3-3.2,5c-0.5,0.8-0.8,1.6-1.3,2.5c0.8,0.3,1.6,0.7,2.4,0.7c1.2,0.1,2.4,0,3.6-0.1c2.4-0.2,4.6,0.8,5.3,2.5
	c0.5,1.3-0.6,4.6-2.1,5.6c-3.5,2.4-6.7,5.3-11.3,6c-2.4,0.4-4.7,1.5-7,2.3c-1.6,0.6-1.7,1.6-0.3,2.7c2.5,1.9,4.8,4.2,7.5,5.8
	c1.8,1.1,4.2,1.5,6.4,1.7c6.9,0.8,13.7,1.4,20,4.8c0.9,0.5,1.8,1.6,2.2,2.6c1.3,3.2,0.3,6.3-1.8,8.6c-2.4,2.5-5.7,1.9-8.8,1.1
	c-1.8-0.5-3.6-1.1-5.5-1.5c-0.5-0.1-1.2,0.1-1.7,0.2c0.1,0.5,0,1.1,0.2,1.6c0.7,1.5,1.5,3.1,2.4,4.4c2.1,2.9,1.1,5.7-0.2,8.3
	c-1,1.9-6.1,2.1-7.3,0.2c-2.2-3.5-4-7.3-6-10.9c-1.5-2.7-2.8-5.6-4.9-7.8c-1.8-1.8-4.5-2.7-6.8-4.1c-2.3-1.5-4.7-2.8-6.7-4.6
	c-3.1-2.8-6.7-4.5-10.7-5.8c-3.9-1.3-7.6-2.9-11.5-4.3c-0.7-0.2-1.3-0.5-2-0.6c-4.6-0.4-9.2-1.3-13.9,0.5c-3.2,1.2-6.4,1.9-8.8,4.6
	c-0.5,0.5-2,0.6-2.7,0.3c-4.3-1.6-8.5-3.2-12.7-5.1c-1.3-0.6-2.4-2.1-2.9-3.5c-1.6-4.1-3.9-5.9-8.6-4.9c-6.9,1.6-12.3-2.4-17.6-6
	c-0.2-0.2-0.5-0.3-0.6-0.6c-0.6-1.2-1.7-2.6-1.5-3.7c0.3-1.7,2.2-1.9,3.6-1.8c7.2,0.4,13.4-2.9,20-4.8c2-0.6,3.6-2.2,5.6-2.8
	c2.8-0.9,5.8-1.2,8.5-2.1c3-1,5.6-2.8,7.3-5.5c2.7-4.4,5.9-8,10.9-9.8c2.7-1,2.7-1.7,2-4.5c-0.8-3.1-1.3-6.2-1.8-9.3s-1.1-6-3.2-8.5
	c-2.4-2.9-4.2-6.2-6.7-9c-2.6-3-5.7-5.7-8.6-8.4c-1.2-1.2-2.5-2.3-3.7-3.4c-1.6-1.4-2.2-1.3-3.2,0.6c-1.1,2.3-3.2,2.8-5.1,1.1
	c-0.7-0.6-1.4-1.3-1.7-2.1c-3-6.8-8.7-10-15.7-11c-5.6-0.8-11.3-1.2-17-1.4c-5.3-0.2-10.7,0-16,0c-2,0-3.6,0.6-5.2,1.8
	c-5.2,4.1-8.3,9.7-11.8,15.1c-5,7.7-7.2,16.2-7.6,25.3c-0.2,3.4-1.7,6.8-2.7,10.2c-0.3,1.2-0.6,2.6-1.3,3.6
	C16,479.2,8.6,479,6.7,475c-0.8-1.7-0.6-4.1-0.3-6.1c0.5-3.1,1.4-6.2,2-9.3c0.2-0.9-0.2-1.8-0.3-2.7c-0.9,0.3-1.9,0.4-2.7,0.8
	c-1.4,0.7-2.8,1.6-4.1,2.5c-3.6,2.4-5.6,1.3-7.2-2.9c-1.4-3.4-0.5-7.1,1.1-10.4c0.3-0.5,0.7-1.1,1.2-1.4c2.2-1.2,4.5-2.3,6.7-3.3
	c1-0.4,2-0.6,3.1-0.8c6-1.4,9.9-5.3,13.1-10.4c2.1-3.3,4.8-6.3,7.1-9.4c0.4-0.5,0.5-1.2,0.8-1.8c-0.6-0.2-1.3-0.8-1.8-0.7
	c-1.5,0.2-2.9,0.6-4.3,1.2c-3.6,1.5-7.1,3.1-10.6,4.5c-0.6,0.2-1.4-0.2-2.1-0.2c-2.8-0.1-5.6-0.1-8.4-0.1c-0.8,0-1.6,0.5-2.3,1
	c-5.1,3.3-9.7,7.2-13.9,11.5c-2.2,2.2-3.5,4.9-4.6,7.9c-1,2.8-2.9,5.2-4.5,7.7c-0.3,0.5-1.6,0.8-2.3,0.6c-5.1-2.1-9.4-5.7-6.6-12.5
	c0.6-1.4,1.2-2.9,1.8-4.3c0.8-1.9,0-2.8-2-2.7c-3,0.2-6.1,0.3-9.1,0.3c-2.6,0-5.2-2.7-5.6-5.7c-0.3-2.7,0.9-4.7,4-5.2
	c5.6-0.8,11.2-1.4,16.8-1.8c5.7-0.4,10.6-2.8,15-6.1c1.7-1.3,2-3.1,0.9-4.9c-2.5-4.4-4.9-8.8-7.7-13.1c-2.3-3.6-6.4-3.7-10.2-4.1
	c-2-0.2-4.1-0.3-6-0.8c-2.4-0.6-4.7-1.6-5.3-4.5c-0.6-3.3,0.5-5.8,3-7.8c3.1-2.5,6.2-1.2,9.3,0c0.9,0.4,1.7,1,2.6,1.4
	c0.4,0.2,0.9,0.1,1.3,0.2c0-0.5,0.1-1.1-0.1-1.5c-0.8-1.9-1.7-3.7-2.7-5.5c-2.1-3.7-0.2-9,4.9-9.4c1.8-0.1,3.6-0.5,5.4-0.6
	c4.2-0.1,6.1,1.9,6.5,6c0.4,3.6,0.1,7.6,1.5,10.8c1.9,4.6,2.3,10.1,6.4,13.8c0.6,0.6,1.1,1.3,1.6,2c2,3.1,4.9,4.9,8.1,6.5
	c2.5,1.2,4.8,2.7,7.1,4.1c4.1,2.4,8.4,2.9,13,2c2.3-0.5,4.5-1,6-3.1c1.9-2.5,2-5.4,0.1-8c-0.4-0.5-0.9-0.9-1.2-1.5
	c-2.9-5.9-8.1-7.9-14.2-8.3c-3.7-0.2-6.9-1.4-9.8-3.6c-2.1-1.6-3.6-3.5-3.4-6.4c0.2-2.5,1.7-4.1,4.1-4.2c2.1-0.1,4.2,0.2,6.3,0.3
	c0.8,0,1.7-0.3,2.5-0.5c-0.2-0.8-0.3-1.6-0.7-2.3c-0.8-1.3-1.6-2.5-2.6-3.6c-1.3-1.4-1-2.7,0.2-3.8c3-2.7,8.2-4.8,12.6-1.3
	c3.8,3,6.2,6.7,7.2,11.1c1.5,6.7,4.9,12.4,9,17.7c4.6,6,11,9.5,18,12.1c0.6,0.2,1.4,0.2,2.1,0.3c2.9,0.2,5.9,0.3,8.9,0.4
	c2.3,0.1,2.8-0.3,3.1-2.6c0.1-1,0.3-2.1,0.5-3.1c1-3.9,0.2-7.4-2.2-10.7c-1-1.4-1.8-2.9-2.3-4.5c-1.3-4.3-3.4-8-6.6-11.3
	c-3-3-5.3-6.7-8-10c-5.2-6.5-10.3-13-15.7-19.3c-4.5-5.2-10.5-7.8-17.1-9.3c-3.5-0.8-6.8-1.7-9.6-4.1c-3.9-3.2-4.1-7.5-0.5-10.8
	c4.7-4.3,7.5-4.6,13.1-1.4c1.3,0.7,2.6,1.5,3.9,2.1c0.5,0.2,1.2,0.2,1.8,0.3c0.1-0.6,0.3-1.2,0.2-1.8c-0.5-2.4-1.1-4.8-1.6-7.2
	c-0.8-4,2.6-8.6,6.6-9c2.5-0.3,6.6,2.2,7.3,4.9c1,3.9,1.8,8,2.3,12c0.7,5.4,0.8,11,1.8,16.4c0.3,2,2.3,3.7,3.6,5.5
	c0.1,0.1,1.5-0.3,1.6-0.7c2.8-9.8,5.5-19.6,8.1-29.5c0.8-3,0.6-6-1-8.8c-1.7-2.9-3.4-5.8-5.1-8.8c-0.6-1.1-1.3-2.2-1.8-3.3
	c-1.5-3.7,0-7,3.8-8.4c1.7-0.6,3.2,0.2,4.1,1.4c1.9,2.5,3.6,5.2,5.4,7.8C67.9,291.7,68,291.9,68.4,292.5z"/>
<circle class="st2" cx="349.8" cy="324" r="91.2"/>
<g>
	<g>
		<line class="st3" x1="237.7" y1="310.5" x2="240.1" y2="307.9"/>
		<line class="st4" x1="245" y1="302.8" x2="271.5" y2="275"/>
		<line class="st3" x1="274" y1="272.4" x2="276.4" y2="269.9"/>
	</g>
</g>
<g>
	<g>
		<line class="st5" x1="317" y1="293" x2="317.3" y2="291.5"/>
		<line class="st6" x1="317.8" y1="288.6" x2="321" y2="272.6"/>
		<line class="st5" x1="321.2" y1="271.1" x2="321.5" y2="269.6"/>
	</g>
</g>
<g>
	<g>
		<line class="st3" x1="237.7" y1="311" x2="239.4" y2="314"/>
		<line class="st7" x1="243.3" y1="320.8" x2="264.4" y2="358"/>
		<line class="st3" x1="266.3" y1="361.4" x2="268" y2="364.5"/>
	</g>
</g>
<path class="st8" d="M305.8,299.3"/>
<path class="st8" d="M296.8,305.4"/>
<path class="st0" d="M277.9,345.9c0,0,9.8-1.6,12.8-2.9c0.6-0.3,1.5-0.9,2.1-1.8c0.1-0.2,0.2-0.4,0.3-0.6c0.2-0.9,0.2-1.8-0.1-2.8
	c-0.1-0.6-0.4-1.1-0.6-1.7c-0.1-0.4-0.2-0.8,0-1.1c0.1-0.1,0.3-0.2,0.4-0.2s0.2,0.1,0.3,0.2c0.5,0.6,0.8,1.3,1.2,2
	c0.8,1.3,1.9,1.7,3.4,1.7c4.7,0,8.6-0.6,12.9-2.5c0.8-0.5,1.6-0.7,1.8-1.8c0.1-0.7,0.1-1.4,0.1-2.1c0-0.4,0-0.8,0.1-1.1
	c0.3-1.4,1.3-1.3,1.8,0.1c0.6,1.7,1.3,5.3,3.7,5.3c1.6,0,21-3.1,21.5-3.2"/>
<path class="st9" d="M375.3,251.5l-53.6,24c0.6,7.9,4.2,14.9,9.6,20.1l52.6-23.5C383.6,264,380.4,256.8,375.3,251.5z"/>
<ellipse transform="matrix(0.9184 -0.3956 0.3956 0.9184 -73.8114 158.0782)" class="st10" cx="346.4" cy="258" rx="5.8" ry="9"/>
<ellipse transform="matrix(0.9184 -0.3956 0.3956 0.9184 -87.4127 158.3353)" class="st10" cx="340.2" cy="291.1" rx="5.8" ry="9"/>
<ellipse transform="matrix(0.9184 -0.3956 0.3956 0.9184 -84.3127 162.7688)" class="st10" cx="352.5" cy="285.8" rx="5.8" ry="9"/>
<ellipse transform="matrix(0.9184 -0.3956 0.3956 0.9184 -81.3939 166.908)" class="st10" cx="364" cy="280.8" rx="5.8" ry="9"/>
<ellipse transform="matrix(0.9184 -0.3956 0.3956 0.9184 -77.8154 170.8317)" class="st10" cx="375.3" cy="274.1" rx="5.8" ry="9"/>
<circle class="st11" cx="352.7" cy="272.9" r="31.2"/>
<circle class="st1" cx="335.7" cy="286.3" r="0.6"/>
<circle class="st1" cx="335.7" cy="285.3" r="0.6"/>
<circle class="st9" cx="336.7" cy="287.3" r="0.6"/>
<circle class="st1" cx="336.7" cy="290.3" r="0.6"/>
<circle class="st1" cx="335.7" cy="289.3" r="0.6"/>
<circle class="st1" cx="337.7" cy="286.3" r="0.6"/>
<circle class="st9" cx="339.7" cy="285.3" r="0.6"/>
<circle class="st1" cx="339.7" cy="287.3" r="0.6"/>
<circle class="st1" cx="340.7" cy="294.3" r="0.6"/>
<circle class="st1" cx="336.7" cy="292.3" r="0.6"/>
<circle class="st1" cx="340.7" cy="296.3" r="0.6"/>
<circle class="st9" cx="341.7" cy="296.3" r="0.6"/>
<circle class="st1" cx="338.7" cy="296.3" r="0.6"/>
<circle class="st9" cx="339.7" cy="289.3" r="0.6"/>
<circle class="st9" cx="338.7" cy="292.3" r="0.6"/>
<circle class="st1" cx="339.7" cy="292.3" r="0.6"/>
<circle class="st9" cx="337.7" cy="294.3" r="0.6"/>
<circle class="st1" cx="341.7" cy="289.3" r="0.6"/>
<circle class="st1" cx="343.7" cy="289.3" r="0.6"/>
<circle class="st1" cx="339.7" cy="291.3" r="0.6"/>
<circle class="st1" cx="341.7" cy="287.3" r="0.6"/>
<circle class="st1" cx="343.7" cy="287.3" r="0.6"/>
<circle class="st1" cx="340.7" cy="285.3" r="0.6"/>
<circle class="st1" cx="337.7" cy="290.3" r="0.6"/>
<circle class="st9" cx="341.7" cy="291.3" r="0.6"/>
<circle class="st9" cx="343.7" cy="291.3" r="0.6"/>
<circle class="st9" cx="342.7" cy="293.3" r="0.6"/>
<circle class="st1" cx="344.7" cy="294.3" r="0.6"/>
<circle class="st1" cx="342.7" cy="295.3" r="0.6"/>
<circle class="st9" cx="340.7" cy="298.3" r="0.6"/>
<circle class="st1" cx="343.7" cy="298.3" r="0.6"/>
<circle class="st1" cx="337.7" cy="288.3" r="0.6"/>
<circle class="st1" cx="337.7" cy="284.3" r="0.6"/>
<circle class="st1" cx="347.7" cy="280.3" r="0.6"/>
<circle class="st1" cx="347.7" cy="279.3" r="0.6"/>
<circle class="st9" cx="348.7" cy="281.3" r="0.6"/>
<circle class="st1" cx="348.7" cy="284.3" r="0.6"/>
<circle class="st1" cx="347.7" cy="283.3" r="0.6"/>
<circle class="st1" cx="349.7" cy="280.3" r="0.6"/>
<circle class="st9" cx="351.7" cy="279.3" r="0.6"/>
<circle class="st1" cx="351.7" cy="281.3" r="0.6"/>
<circle class="st1" cx="352.7" cy="288.3" r="0.6"/>
<circle class="st1" cx="348.7" cy="286.3" r="0.6"/>
<circle class="st1" cx="352.7" cy="290.3" r="0.6"/>
<circle class="st9" cx="353.7" cy="290.3" r="0.6"/>
<circle class="st1" cx="350.7" cy="290.3" r="0.6"/>
<circle class="st9" cx="351.7" cy="283.3" r="0.6"/>
<circle class="st9" cx="350.7" cy="286.3" r="0.6"/>
<circle class="st1" cx="351.7" cy="286.3" r="0.6"/>
<circle class="st9" cx="349.7" cy="288.3" r="0.6"/>
<circle class="st1" cx="353.7" cy="283.3" r="0.6"/>
<circle class="st1" cx="355.7" cy="283.3" r="0.6"/>
<circle class="st1" cx="351.7" cy="285.3" r="0.6"/>
<circle class="st1" cx="353.7" cy="281.3" r="0.6"/>
<circle class="st1" cx="355.7" cy="281.3" r="0.6"/>
<circle class="st1" cx="352.7" cy="279.3" r="0.6"/>
<circle class="st1" cx="349.7" cy="284.3" r="0.6"/>
<circle class="st9" cx="353.7" cy="285.3" r="0.6"/>
<circle class="st9" cx="355.7" cy="285.3" r="0.6"/>
<circle class="st9" cx="354.7" cy="287.3" r="0.6"/>
<circle class="st1" cx="356.7" cy="288.3" r="0.6"/>
<circle class="st1" cx="354.7" cy="289.3" r="0.6"/>
<circle class="st9" cx="352.7" cy="292.3" r="0.6"/>
<circle class="st1" cx="355.7" cy="292.3" r="0.6"/>
<circle class="st1" cx="349.7" cy="282.3" r="0.6"/>
<circle class="st1" cx="349.7" cy="278.3" r="0.6"/>
<circle class="st1" cx="359.7" cy="276.3" r="0.6"/>
<circle class="st1" cx="359.7" cy="275.3" r="0.6"/>
<circle class="st9" cx="360.7" cy="277.3" r="0.6"/>
<circle class="st1" cx="360.7" cy="280.3" r="0.6"/>
<circle class="st1" cx="359.7" cy="279.3" r="0.6"/>
<circle class="st1" cx="361.7" cy="276.3" r="0.6"/>
<circle class="st9" cx="363.7" cy="275.3" r="0.6"/>
<circle class="st1" cx="363.7" cy="277.3" r="0.6"/>
<circle class="st1" cx="364.7" cy="284.3" r="0.6"/>
<circle class="st1" cx="360.7" cy="282.3" r="0.6"/>
<circle class="st1" cx="364.7" cy="286.3" r="0.6"/>
<circle class="st9" cx="365.7" cy="286.3" r="0.6"/>
<circle class="st1" cx="362.7" cy="286.3" r="0.6"/>
<circle class="st9" cx="363.7" cy="279.3" r="0.6"/>
<circle class="st9" cx="362.7" cy="282.3" r="0.6"/>
<circle class="st1" cx="363.7" cy="282.3" r="0.6"/>
<circle class="st9" cx="361.7" cy="284.3" r="0.6"/>
<circle class="st1" cx="365.7" cy="279.3" r="0.6"/>
<circle class="st1" cx="367.7" cy="279.3" r="0.6"/>
<circle class="st1" cx="363.7" cy="281.3" r="0.6"/>
<circle class="st1" cx="365.7" cy="277.3" r="0.6"/>
<circle class="st1" cx="367.7" cy="277.3" r="0.6"/>
<circle class="st1" cx="364.7" cy="275.3" r="0.6"/>
<circle class="st1" cx="361.7" cy="280.3" r="0.6"/>
<circle class="st9" cx="365.7" cy="281.3" r="0.6"/>
<circle class="st9" cx="367.7" cy="281.3" r="0.6"/>
<circle class="st9" cx="366.7" cy="283.3" r="0.6"/>
<circle class="st1" cx="368.7" cy="284.3" r="0.6"/>
<circle class="st1" cx="366.7" cy="285.3" r="0.6"/>
<circle class="st9" cx="364.7" cy="288.3" r="0.6"/>
<circle class="st1" cx="367.7" cy="288.3" r="0.6"/>
<circle class="st1" cx="361.7" cy="278.3" r="0.6"/>
<circle class="st1" cx="361.7" cy="274.3" r="0.6"/>
<circle class="st1" cx="370.7" cy="269.3" r="0.6"/>
<circle class="st1" cx="370.7" cy="268.3" r="0.6"/>
<circle class="st9" cx="371.7" cy="270.3" r="0.6"/>
<circle class="st1" cx="371.7" cy="273.3" r="0.6"/>
<circle class="st1" cx="370.7" cy="272.3" r="0.6"/>
<circle class="st1" cx="372.7" cy="269.3" r="0.6"/>
<circle class="st9" cx="374.7" cy="268.3" r="0.6"/>
<circle class="st1" cx="374.7" cy="270.3" r="0.6"/>
<circle class="st1" cx="375.7" cy="277.3" r="0.6"/>
<circle class="st1" cx="371.7" cy="275.3" r="0.6"/>
<circle class="st1" cx="375.7" cy="279.3" r="0.6"/>
<circle class="st9" cx="376.7" cy="279.3" r="0.6"/>
<circle class="st1" cx="373.7" cy="279.3" r="0.6"/>
<circle class="st9" cx="374.7" cy="272.3" r="0.6"/>
<circle class="st9" cx="373.7" cy="275.3" r="0.6"/>
<circle class="st1" cx="374.7" cy="275.3" r="0.6"/>
<circle class="st9" cx="372.7" cy="277.3" r="0.6"/>
<circle class="st1" cx="376.7" cy="272.3" r="0.6"/>
<circle class="st1" cx="378.7" cy="272.3" r="0.6"/>
<circle class="st1" cx="374.7" cy="274.3" r="0.6"/>
<circle class="st1" cx="376.7" cy="270.3" r="0.6"/>
<circle class="st1" cx="378.7" cy="270.3" r="0.6"/>
<circle class="st1" cx="375.7" cy="268.3" r="0.6"/>
<circle class="st1" cx="372.7" cy="273.3" r="0.6"/>
<circle class="st9" cx="376.7" cy="274.3" r="0.6"/>
<circle class="st9" cx="378.7" cy="274.3" r="0.6"/>
<circle class="st9" cx="377.7" cy="276.3" r="0.6"/>
<circle class="st1" cx="379.7" cy="277.3" r="0.6"/>
<circle class="st1" cx="377.7" cy="278.3" r="0.6"/>
<circle class="st9" cx="375.7" cy="281.3" r="0.6"/>
<circle class="st1" cx="378.7" cy="281.3" r="0.6"/>
<circle class="st1" cx="372.7" cy="271.3" r="0.6"/>
<circle class="st1" cx="372.7" cy="267.3" r="0.6"/>
<ellipse transform="matrix(0.9184 -0.3956 0.3956 0.9184 -77.8656 153.0166)" class="st10" cx="332.1" cy="265.3" rx="5.8" ry="9"/>
<ellipse transform="matrix(0.9184 -0.3956 0.3956 0.9184 -70.4181 162.9559)" class="st10" cx="359.9" cy="252.2" rx="5.8" ry="9"/>
<path class="st12" d="M338,270.9c-0.1-0.1-1.3-1.4-2-2.2c-0.3-0.3-0.4-0.5-0.5-0.5c-4-4.2-4.1,1.4-1.4,1.3s-0.8-4.5-0.8-4.5
	l-0.6-0.7c-4-4.2-4.1,1.4-1.4,1.3s-0.8-4.5-0.8-4.5l-0.4-0.5c-4-4.2-4.1,1.4-1.4,1.3s-0.8-4.5-0.8-4.5"/>
<path class="st12" d="M365.8,258c-0.1-0.1-1.3-1.4-2-2.2c-0.3-0.3-0.4-0.5-0.5-0.5c-4-4.2-4.1,1.4-1.4,1.3s-0.8-4.5-0.8-4.5
	l-0.6-0.7c-4-4.2-4.1,1.4-1.4,1.3c2.7-0.1-0.8-4.5-0.8-4.5l-0.4-0.5c-4-4.2-4.1,1.4-1.4,1.3c2.7-0.1-0.8-4.5-0.8-4.5"/>
<path class="st13" d="M336.2,273.2"/>
<ellipse transform="matrix(0.9184 -0.3956 0.3956 0.9184 -77.8656 153.0166)" class="st5" cx="332.1" cy="265.3" rx="5.8" ry="9"/>
<ellipse transform="matrix(0.9184 -0.3956 0.3956 0.9184 -70.4181 162.9559)" class="st5" cx="359.9" cy="252.2" rx="5.8" ry="9"/>
<g>
	<g>
		<line class="st5" x1="317" y1="291.6" x2="318.4" y2="292.2"/>
		<line class="st14" x1="320.9" y1="293.3" x2="335" y2="299.5"/>
		<line class="st5" x1="336.3" y1="300" x2="337.7" y2="300.6"/>
	</g>
</g>
<g>
	<g>
		<path class="st15" d="M278.4,297.8c0,0,1.8-3.4,2.4-1.3c0.5,2.1,0.7,3.8,0.7,3.8S279.1,298.4,278.4,297.8z"/>
		<path class="st15" d="M296.2,298.9c0.4,2.5,1.2,4.9,1.5,6.4c0.1,0.6,0.8,0.9,1.4,0.9c1.5,0.1,2.3-3,2.8-6.3
			c0.2-1.7-0.9-5.4-2.7-8.2c-1.6-2.5-2.7-5.8-4.9-4.5c-1.5,0.9,1.3,3.1,1.8,5.9C296.4,295.4,296,297.5,296.2,298.9z"/>
		<path class="st15" d="M294.1,297.2c1.6,1.9,2.6,2.7,3.2,5.7c0.4,1.8,1.2,3.6-0.8,3.9c-1.7,0.3-1.8-2.1-4.2-4.4
			c-1.2-1.2-2.6-4.9-3.5-8c-0.3-0.9-1-2.2-1.2-3.2c-0.4-1.6,0.5-4.5,2.1-3.3c1.6,1.1,0.1,3.8,1.3,5.9
			C292.1,295.6,293,295.9,294.1,297.2z"/>
		<path class="st15" d="M300.1,305.8c0,0,1.9,2.2,4-1.9c2.1-4.1,3.1-3.5,3-6.1c-0.2-2.6,0.4-3.7,1.4-5c1-1.3,3.7-4.3,3.2-5.2
			c-0.2-0.5-1.9-0.9-3.3,1.3c-1.5,2.2-2,3-3.8,4.9c-1.8,1.9-2.2,3.3-3.1,6.4S299.9,304.9,300.1,305.8z"/>
		<path class="st15" d="M295,307.6c0.2-0.1,0.7-0.8,0.4-1c-0.8-0.6-2.1-3.2-4.7-5.7c-3.2-3-6.5-7.1-7.2-8c-0.7-0.9-2.7-2.2-3.1,0
			c-0.4,2.4,1.9,2.3,2.8,3.3c0.8,0.9,3.9,5.9,4.1,6.4c0.2,0.5,0.6,2.8,3,3C292.3,305.9,293.9,308.1,295,307.6z"/>
		<path class="st15" d="M301.9,306.3c0,0,1.1,2,1.3,3.6c0.3,1.6,1.7,3.2,2.9,4.4c1.2,1.2,1.3,1.6,1.5,3c0.2,1.3,0.3,1.9,0.9,2.3
			c0.6,0.4,1.7,1.3,1.3,3.6c-0.3,2.3-0.2,3.8-0.2,4.3c0,0.5,0.2,4.6-1,3.9c-1.1-0.6-0.9-0.4-1.2-0.3c-0.3,0.1-0.9-0.1-1.1-0.4
			c-0.3-0.3-1.3,0.1-1.8-0.5c-0.5-0.5-0.3-0.2-0.6,0c-0.4,0.4-0.6,0.2-1,0c-0.3-0.1-0.2,0.5-0.6,0.8c-0.2,0.1-0.4,0.2-0.7,0.1
			c-0.2,0-0.1,0.7-0.3,1.1c-0.1,0.3-0.5,0.4-0.8,0.3c-0.7-0.2,0.7,0.5,0,1.3c0,0-0.3,0.3-0.5,0.5c-0.1,0.1-0.4,0.7-1.2-1.2
			s-1.3-1.2-2.4-3.2c-1.1-2-1.6-2.9-1.8-3.8c-0.2-0.9-0.3-2.5-0.3-4c0-1.5,0-2.4-0.3-5.8c-0.3-3.4-0.9-5.1-1-6.2s1.9-2.5,1.9-2.5
			s0.6-0.4,0.6-0.8c0-0.4,0.2-0.4,0.6-0.3c0.4,0.1,1.5,0.2,1.5-0.6c0.1-1.1,0.9,0.2,1.4,0.2c0.4,0,1-0.2,1-0.3
			C300.1,305.9,300.7,306.5,301.9,306.3z"/>
		<path class="st15" d="M295.8,306.7c0,0,0.6,0.4,0.8,1.4s1.1,2.9,1.9,5.6c0.8,2.4,3,10.6,3.6,13c0.1,0.3,0.1,0.6,0.1,0.9
			c0,0.6,0.1,1.8,0.4,2.5c0.2,0.3,0.8,0.4,1,0.4c0.7-0.1,1-1.3-0.2-5.9c-1.2-4.6-2-6.3-2.6-7.4s-1.1-3.1-1.4-4.5
			c-0.3-1.5-1.2-2.3-1.3-3.4c0-1.2,0-2.9-0.4-3.2C297.4,305.8,297.9,306.9,295.8,306.7z"/>
		<path class="st15" d="M293.9,309.3c0,0,1.8,1.6,2.1,5s1,3.8,0.6,6.6c-0.4,3.1,0.3,3.5,1,5.6s1.1,3.6,1.7,4.7
			c0.2,0.5,0.4,0.9,0.7,1.1c0.3,0.3,0.9,0.2,1,0.1c0.2-0.2,0.3-0.5,0.3-0.8c0-0.4,0.2-0.8,0-1.5c-0.3-1.1-0.7-1.3-0.5-2.5
			c0.2-1.2,0-1.1-0.6-2.7c-0.8-2-1-6.7-1.8-7.5c-0.4-0.4-0.7-2.5-0.9-3.7s-1.2-2.8-1.5-3.5C295.7,309.8,294.7,305.9,293.9,309.3z"/>
		<path class="st15" d="M299.6,306.2c-0.4,1-0.5,2.3,0.4,4.7c0.9,2.4,2.4,6.1,2.9,7.5s2,5.3,2.2,6.2c0.2,0.9,1,4.8,1,5.3
			c0,0.2,0.1,0.5,0.2,0.7c0.2,0.3,0.5,0.4,0.7,0.5c0.2,0,0.6,0.2,0.7-0.2c0.1-0.2,0.2-0.5,0.1-1.4c-0.1-2.3,0.2-5.2-0.5-6.8
			s-1.5-3.2-1.7-4.5c-0.3-1.3-1.2-2.7-2.2-3.6c-0.9-1-1.2-3.5-1.8-4.3c-0.6-0.8-0.5-2.5-0.5-3.2c0-0.7-1.1-1-1.1-1.1
			C300,305.8,299.7,306.1,299.6,306.2z"/>
	</g>
	<path class="st15" d="M299.7,334.7c0,0-1.2,1.8-2.1,1.2"/>
</g>
<path class="st16" d="M281.8,338.8c-5.2,3.8-19.2,6.3-17.9,7.1c0.5,0.3,21.3-1.7,27.5-5c1-0.5,1.3-1.6,1.3-2.2
	c0-1.2-0.5-2.1-0.8-3.2c-0.4-1-0.1-1.5,0.3-1.8c0.8-0.7,2-0.1,2.5,0.8c0.2,0.3,0.3,0.6,0.4,0.8c1.5,3.1,4.9,2.1,6.5,1.6
	c2.4-0.7,6.4-1.7,8.8-2.4c0.8-0.2,1.8-1.1,1.8-3.6c0-1.3,0.6-2.4,1.3-2.7c0.3-0.1,0.8-0.2,1.3,0.2c0.7,0.5,1.1,1.9,1.6,3
	c0.1,0.2,0.4,0.8,0.7,1.2c0.5,0.8,1.1,1.6,1.9,2c0.4,0.2,1.9,0.1,2.3,0c0,0,28.2-4.2,27.4-5.8c-0.2-0.3-4.2-0.8-9.5-2.1
	c-4-1-8.8-2.4-13.2-4.7c-4.6-2.4-8.9-5.7-11.4-10.2c-2.3-4.1-3.2-9.3-1.7-15.8c0.1-0.3,0.2-0.7,0.3-1c0.3-0.6,0.7-1.4,1.2-1.9
	c0.2-0.2,0.3-0.3,0.5-0.4c0.6-0.4,1.3-0.7,1.6-0.9c1.8-1.1-0.2-4.4-2.9-2.4c-1,0.8-1.6,1.9-2.2,3c-0.6,1.2-1.3,2.3-2.1,3.2
	c-0.8,0.8-2.4,1.5-2.7,2.6c-0.5,1.3-0.5,2.7-1.2,4c-0.5,0.9-1.1,1.4-2,1.9c-0.7,0.3-1.5,0.5-1.5,1.4c-0.1,1.5-0.3,2.2,1.5,2.3
	c1.9,0.1,3.3,0,4.6,1.7c0.3,0.5,0.5,0.7,0.8,1.2c0.2,0.3,0.6,0.8,0.8,1.1c0.5,0.8,0.6,1.3,0.7,1.8c0.8,3.9,0.9,8-0.7,11.6
	c-0.2,0.5-0.5,1-0.7,1.6c-0.3,1.2,0.4,2.5-0.3,3.5c-0.9,1.2-3.1,2.1-4.5,2.6c-1.7,0.6-3.4,0.9-5.2,0.9c-1.5,0-2.4-0.6-3.2-1.9
	c-0.6-1-0.9-2.3-1.6-3.3s-2-1.3-2.6-2.4c-0.3-0.5-0.3-1.1-0.3-1.6c0-0.6-0.1-1.1-0.3-1.6c-0.3-0.5-0.8-0.9-1.4-0.8
	c-0.1,0-0.2,0.1-0.3,0c-0.1,0-0.2-0.2-0.2-0.3c-0.4-1.8-0.6-3.5-0.6-5.4c0-2.4-0.1-3.4,1-4.5s4.3-1,4.3-2.8s2.1-1.2,0-1.8
	c-2.1-0.6-3.7-1.3-4.5-2c-0.9-0.7-0.9-2-1.7-2.7c-0.2-0.2-0.5-0.4-0.8-0.5c-1.2-0.6-2.4-1.1-3.6-1.7c-1.5-0.7-3-1.4-4.2-2.5
	c-1-0.9-2-2-3.3-1.9c-0.7,0.1-1.2,0.5-1.5,1.2c-0.2,0.6-0.1,1.4,0.3,1.9c0.8,0.9,2.1,0.8,3.3,1.1c4.1,0.9,5.3,6.1,6.8,9.5
	c1.8,4.1,2.1,9,2,13.4c-0.1,3.6,0.4,8.3-1.4,11.5C284.5,336.7,283.1,337.8,281.8,338.8z"/>
<circle class="st9" cx="237.7" cy="311" r="5.5"/>
<circle class="st1" cx="317" cy="291.6" r="1.9"/>
</svg>
